<svg enable-background="new 0 0 512 512" height="512" viewBox="0 0 512 512" width="512" xmlns="http://www.w3.org/2000/svg"><g id="BULINE"><g id="XMLID_5_"><circle cx="256" cy="256" fill="#fcc8bc" r="256"/></g></g><g id="Icons"><g id="XMLID_2165_"><g id="XMLID_2179_"><g id="XMLID_2198_"><path d="m449.964 407.393h-140.129c-4.572 0-8.278-3.706-8.278-8.278v-318.91c0-4.572 3.706-8.278 8.278-8.278h140.129c4.572 0 8.278 3.706 8.278 8.278v318.911c0 4.571-3.706 8.277-8.278 8.277z" fill="#3e436d"/></g><g id="XMLID_2197_"><path d="m319.234 96.509v177.679c0 3.555 2.882 6.436 6.436 6.436h18.382c5.662 0 10.252 4.59 10.252 10.252v31.813c0 13.535 10.972 24.507 24.507 24.507 13.535 0 24.507-10.972 24.507-24.507v-31.813c0-5.662 4.59-10.252 10.252-10.252h20.557c3.555 0 6.436-2.882 6.436-6.436v-177.679c0-3.555-2.882-6.436-6.436-6.436h-108.457c-3.554 0-6.436 2.882-6.436 6.436z" fill="#a99bd4"/></g><g id="XMLID_2196_"><path d="m362.865 407.393h-53.032c-4.572 0-8.276-3.704-8.276-8.276v-318.913c0-4.572 3.704-8.276 8.276-8.276h53.032c-4.572 0-8.276 3.704-8.276 8.276v318.913c0 4.572 3.704 8.276 8.276 8.276z" fill="#32314b"/></g><g id="XMLID_2195_"><path d="m354.589 90.071v236.401c-.193-1.237-.289-2.499-.289-3.785v-31.811c0-5.665-4.588-10.253-10.253-10.253h-18.377c-3.56 0-6.436-2.877-6.436-6.436v-177.68c0-3.552 2.877-6.436 6.436-6.436z" fill="#958bbc"/></g><g id="XMLID_2194_"><circle cx="379.899" cy="320.011" fill="#366fca" r="18.481"/></g><g id="XMLID_2193_"><path d="m379.899 333.292c-6.584 0-11.941-5.356-11.941-11.941s5.357-11.941 11.941-11.941 11.941 5.356 11.941 11.941-5.356 11.941-11.941 11.941zm0-18.883c-3.828 0-6.941 3.114-6.941 6.941s3.114 6.941 6.941 6.941 6.941-3.114 6.941-6.941-3.113-6.941-6.941-6.941z" fill="#fffdfd"/></g><g id="XMLID_2192_"><path d="m379.899 325.228c-1.381 0-2.5-1.119-2.5-2.5v-15.104c0-1.381 1.119-2.5 2.5-2.5s2.5 1.119 2.5 2.5v15.104c0 1.38-1.119 2.5-2.5 2.5z" fill="#fffdfd"/></g><g id="XMLID_2191_"><path d="m403.505 245.624h-47.211c-1.164 0-2.107-.943-2.107-2.107v-7.571c0-1.164.943-2.107 2.107-2.107h47.211c1.164 0 2.107.943 2.107 2.107v7.571c0 1.163-.944 2.107-2.107 2.107z" fill="#b0d46c"/></g><g id="XMLID_2190_"><path d="m403.505 266.578h-47.211c-1.164 0-2.107-.943-2.107-2.107v-7.571c0-1.164.943-2.107 2.107-2.107h47.211c1.164 0 2.107.943 2.107 2.107v7.571c0 1.163-.944 2.107-2.107 2.107z" fill="#b0d46c"/></g><g id="XMLID_2189_"><circle cx="379.899" cy="287.469" fill="#db1b1b" r="6.662"/></g><g id="XMLID_2188_"><path d="m426.838 140.159h-93.877c-3.365 0-6.093-2.728-6.093-6.093v-25.043c0-3.365 2.728-6.093 6.093-6.093h93.877c3.365 0 6.093 2.728 6.093 6.093v25.043c0 3.365-2.728 6.093-6.093 6.093z" fill="#4f4f74"/></g><g id="XMLID_2187_"><path d="m426.838 182.343h-93.877c-3.365 0-6.093-2.728-6.093-6.093v-25.043c0-3.365 2.728-6.093 6.093-6.093h93.877c3.365 0 6.093 2.728 6.093 6.093v25.043c0 3.365-2.728 6.093-6.093 6.093z" fill="#4f4f74"/></g><g id="XMLID_2186_"><path d="m426.838 224.527h-93.877c-3.365 0-6.093-2.728-6.093-6.093v-25.043c0-3.365 2.728-6.093 6.093-6.093h93.877c3.365 0 6.093 2.728 6.093 6.093v25.043c0 3.365-2.728 6.093-6.093 6.093z" fill="#4f4f74"/></g><g id="XMLID_2185_"><path d="m354.589 102.927v37.235h-21.631c-3.367 0-6.091-2.732-6.091-6.099v-25.037c0-3.367 2.724-6.099 6.091-6.099z" fill="#3e436d"/></g><g id="XMLID_2184_"><path d="m354.589 145.111v37.235h-21.631c-3.367 0-6.091-2.732-6.091-6.099v-25.037c0-3.367 2.724-6.099 6.091-6.099z" fill="#3e436d"/></g><g id="XMLID_2183_"><path d="m354.589 187.295v37.235h-21.631c-3.367 0-6.091-2.732-6.091-6.099v-25.037c0-3.367 2.724-6.099 6.091-6.099z" fill="#3e436d"/></g><g id="XMLID_2180_"><g id="XMLID_2182_"><circle cx="432.931" cy="372.029" fill="#4f4f74" r="11.755"/></g><g id="XMLID_2181_"><circle cx="432.931" cy="347.54" fill="#4f4f74" r="8.326"/></g></g></g><g id="XMLID_2166_"><g id="XMLID_2178_"><path d="m241.782 392.37h-86.904l2.72-30.039 1.303-14.347h78.858l1.303 14.347z" fill="#e5e5e5"/></g><g id="XMLID_2177_"><path d="m239.062 362.331h-81.464l1.303-14.347h78.858z" fill="#ccc"/></g><g id="XMLID_2176_"><path d="m261.899 407.393h-127.138c-1.481 0-2.682-1.201-2.682-2.682v-4.025c0-4.593 3.723-8.316 8.316-8.316h115.87c4.593 0 8.316 3.723 8.316 8.316v4.025c0 1.481-1.201 2.682-2.682 2.682z" fill="#fff"/></g><g id="XMLID_2175_"><path d="m351.744 348.551h-306.828c-6.593 0-11.938-5.345-11.938-11.938v-189.093c0-6.593 5.345-11.938 11.938-11.938h306.828c6.593 0 11.938 5.345 11.938 11.938v189.094c0 6.593-5.345 11.937-11.938 11.937z" fill="#3e436d"/></g><g id="XMLID_2174_"><path d="m98.028 348.547h-53.108c-6.59 0-11.941-5.343-11.941-11.933v-189.098c0-6.59 5.351-11.933 11.941-11.933h53.108c-6.59 0-11.941 5.343-11.941 11.933v189.098c0 6.59 5.351 11.933 11.941 11.933z" fill="#32314b"/></g><g id="XMLID_2173_"><circle cx="199.896" cy="143.461" fill="#27273d" r="4.023"/></g><g id="XMLID_2172_"><path d="m340.857 333.196h-285.054c-5.87 0-10.628-4.758-10.628-10.628v-161.002c0-5.87 4.758-10.628 10.628-10.628h285.055c5.87 0 10.628 4.758 10.628 10.628v161.001c0 5.87-4.759 10.629-10.629 10.629z" fill="#7cc8fb"/></g><g id="XMLID_2171_"><path d="m86.087 150.936v182.258h-30.28c-5.874 0-10.63-4.756-10.63-10.63v-160.998c0-5.866 4.756-10.63 10.63-10.63z" fill="#41c0e3"/></g><g id="XMLID_2167_"><g id="XMLID_2170_"><circle cx="331.224" cy="198.986" fill="#a2dcfc" r="11.772"/></g><g id="XMLID_2169_"><circle cx="331.224" cy="174.462" fill="#a2dcfc" r="8.338"/></g></g></g></g></g></svg>